<?xml version="1.0" encoding="utf-8"?>
<svg version="1.1" id="Layer_1" xmlns="http://www.w3.org/2000/svg" xmlns:xlink="http://www.w3.org/1999/xlink" x="0px" y="0px"
	 viewBox="0 0 96 96" style="enable-background:new 0 0 96 96;" xml:space="preserve">
<style type="text/css">
	.st0{fill:#143050;}
</style>
<g id="XMLID_2_">
	<path id="XMLID_8_" class="st0" d="M48,18c-16.7,0-22.1,11-22.1,30c0,19,5.4,30,22.1,30c16.7,0,22.1-11,22.1-30
		C70.1,29,64.7,18,48,18z M45.4,21.3l17,16L50.8,48.3l11.7,11.1l-17,16l0.1-22.7l-9.6,9.1l-2.5-2.4L45,48.3L33.4,37.2l2.5-2.4
		l9.6,9.1L45.4,21.3L45.4,21.3z M49.5,30.4v13.8l7.3-6.9L49.5,30.4z M49.5,52.5v13.8l7.3-6.9L49.5,52.5z"/>
</g>
</svg>
